<mxfile host="app.diagrams.net" modified="2021-05-04T16:32:05.339Z" agent="5.0 (Windows NT 10.0; Win64; x64) AppleWebKit/537.36 (KHTML, like Gecko) Chrome/90.0.4430.93 Safari/537.36" etag="6FkAkhr_sIuXgnPVgVYC" version="14.6.9" type="github">
  <diagram id="iCkafFoxhJwPjxGJYm8F" name="Page-1">
    <mxGraphModel dx="868" dy="482" grid="1" gridSize="10" guides="1" tooltips="1" connect="1" arrows="1" fold="1" page="1" pageScale="1" pageWidth="850" pageHeight="1100" math="0" shadow="0">
      <root>
        <mxCell id="0" />
        <mxCell id="1" parent="0" />
        <mxCell id="z7XbfD8eo0AMTZfTKfMe-3" style="edgeStyle=orthogonalEdgeStyle;rounded=0;orthogonalLoop=1;jettySize=auto;html=1;" edge="1" parent="1" source="z7XbfD8eo0AMTZfTKfMe-1" target="z7XbfD8eo0AMTZfTKfMe-2">
          <mxGeometry relative="1" as="geometry" />
        </mxCell>
        <mxCell id="z7XbfD8eo0AMTZfTKfMe-1" value="Commence program" style="ellipse;whiteSpace=wrap;html=1;" vertex="1" parent="1">
          <mxGeometry x="120" y="50" width="140" height="60" as="geometry" />
        </mxCell>
        <mxCell id="z7XbfD8eo0AMTZfTKfMe-5" style="edgeStyle=orthogonalEdgeStyle;rounded=0;orthogonalLoop=1;jettySize=auto;html=1;" edge="1" parent="1" source="z7XbfD8eo0AMTZfTKfMe-2">
          <mxGeometry relative="1" as="geometry">
            <mxPoint x="460" y="80" as="targetPoint" />
          </mxGeometry>
        </mxCell>
        <mxCell id="z7XbfD8eo0AMTZfTKfMe-2" value="Get length&lt;br&gt;len" style="shape=parallelogram;perimeter=parallelogramPerimeter;whiteSpace=wrap;html=1;fixedSize=1;" vertex="1" parent="1">
          <mxGeometry x="300" y="50" width="120" height="60" as="geometry" />
        </mxCell>
        <mxCell id="z7XbfD8eo0AMTZfTKfMe-6" style="edgeStyle=orthogonalEdgeStyle;rounded=0;orthogonalLoop=1;jettySize=auto;html=1;" edge="1" parent="1" source="z7XbfD8eo0AMTZfTKfMe-7">
          <mxGeometry relative="1" as="geometry">
            <mxPoint x="460" y="150" as="targetPoint" />
          </mxGeometry>
        </mxCell>
        <mxCell id="z7XbfD8eo0AMTZfTKfMe-7" value="Get width&lt;br&gt;wid" style="shape=parallelogram;perimeter=parallelogramPerimeter;whiteSpace=wrap;html=1;fixedSize=1;" vertex="1" parent="1">
          <mxGeometry x="300" y="120" width="120" height="60" as="geometry" />
        </mxCell>
        <mxCell id="z7XbfD8eo0AMTZfTKfMe-10" style="edgeStyle=orthogonalEdgeStyle;rounded=0;orthogonalLoop=1;jettySize=auto;html=1;" edge="1" parent="1" source="z7XbfD8eo0AMTZfTKfMe-1" target="z7XbfD8eo0AMTZfTKfMe-7">
          <mxGeometry relative="1" as="geometry">
            <mxPoint x="280" y="150" as="targetPoint" />
            <mxPoint x="260" y="80" as="sourcePoint" />
            <Array as="points">
              <mxPoint x="280" y="80" />
              <mxPoint x="280" y="150" />
            </Array>
          </mxGeometry>
        </mxCell>
      </root>
    </mxGraphModel>
  </diagram>
</mxfile>
